<svg height="20" viewBox="0 0 20 20" width="20" xmlns="http://www.w3.org/2000/svg"><path d="m58.9976 7970h-.023c-1.076 0-1.975.985-1.975 2.061v.939h-6v-.91c0-1.039-.832-1.952-1.87-1.905-1.377.061-2.603-.809-2.986-2.057-.981-3.199 3.078-5.353 5.158-2.842-1.726-3.601 3.764-6.152 5.422-2.526.368.804.377 1.687-.025 2.526 1.109-1.34 3.699-1.587 4.667-.144 1.608 2.396-.089 4.858-2.368 4.858zm-1.998 6c0 .552-.447 1-1 1h-4c-.552 0-1-.448-1-1v-1h6zm1.66-13.778c-.719-1.881-2.527-3.222-4.66-3.222-2.132 0-3.94 1.341-4.659 3.222-3.047-.209-5.341 2.196-5.341 4.965 0 2.472 1.793 4.524 4.15 4.928.486.084.85.49.85.984v3.901c0 1.105.896 2 2 2h6c1.105 0 2-.895 2-2v-3.901c0-.494.364-.9.851-.984 2.356-.404 4.149-2.456 4.149-4.928 0-2.764-2.289-5.175-5.34-4.965z" fill-rule="evenodd" transform="translate(-44 -7959)"/></svg>